<svg width="25" height="25" viewBox="0 0 25 25" fill="none" xmlns="http://www.w3.org/2000/svg">
<path d="M12.6523 2.85938L5.46875 5.85938C5.39815 5.88929 5.3379 5.93931 5.29553 6.00321C5.25316 6.06712 5.23053 6.14208 5.23047 6.21876V12.5899C5.22996 14.1397 5.63268 15.6631 6.39904 17.0102C7.16541 18.3573 8.26906 19.4819 9.60156 20.2734L12.793 22.1719L15.9414 20.2813C17.2627 19.4863 18.356 18.3632 19.1151 17.021C19.8741 15.6788 20.2732 14.1631 20.2734 12.6211V5.85938C20.2737 5.77957 20.2495 5.70159 20.2041 5.63594C20.1587 5.5703 20.0943 5.52013 20.0195 5.4922L12.9375 2.85157C12.8449 2.81813 12.743 2.82092 12.6523 2.85938Z" stroke="black" stroke-width="2"/>
<path d="M12.8243 7.00001L14.2462 9.87892C14.2502 9.88654 14.2557 9.89324 14.2624 9.89862C14.2691 9.904 14.2769 9.90793 14.2852 9.91017L17.4649 10.3711C17.4749 10.3721 17.4844 10.376 17.4922 10.3823C17.5 10.3887 17.5057 10.3972 17.5087 10.4069C17.5116 10.4165 17.5116 10.4268 17.5087 10.4364C17.5057 10.446 17.5 10.4546 17.4922 10.4609L15.1954 12.6992C15.1913 12.7064 15.1891 12.7144 15.1891 12.7227C15.1891 12.7309 15.1913 12.739 15.1954 12.7461L15.7383 15.9102C15.7401 15.9201 15.7391 15.9304 15.7354 15.9398C15.7317 15.9492 15.7254 15.9574 15.7173 15.9635C15.7092 15.9696 15.6996 15.9733 15.6895 15.9742C15.6794 15.9751 15.6693 15.9733 15.6602 15.9688L12.8204 14.4727C12.8124 14.4689 12.8038 14.4669 12.795 14.4669C12.7862 14.4669 12.7775 14.4689 12.7696 14.4727L9.92975 15.9688C9.92067 15.9733 9.91053 15.9751 9.90045 15.9742C9.89037 15.9733 9.88075 15.9696 9.87265 15.9635C9.86455 15.9574 9.85829 15.9492 9.85458 15.9398C9.85087 15.9304 9.84984 15.9201 9.85162 15.9102L10.3946 12.7461C10.3978 12.7387 10.3995 12.7307 10.3995 12.7227C10.3995 12.7146 10.3978 12.7066 10.3946 12.6992L8.09771 10.4609C8.08993 10.4546 8.08421 10.446 8.08129 10.4364C8.07837 10.4268 8.07837 10.4165 8.0813 10.4069C8.08423 10.3972 8.08995 10.3887 8.09774 10.3823C8.10554 10.376 8.11504 10.3721 8.12506 10.3711L11.3008 9.91017C11.31 9.90871 11.3186 9.90512 11.3261 9.89969C11.3335 9.89426 11.3396 9.88714 11.3438 9.87892L12.7618 7.00001C12.7707 6.99304 12.7817 6.98926 12.793 6.98926C12.8044 6.98926 12.8154 6.99304 12.8243 7.00001Z" stroke="black" stroke-width="2" stroke-linecap="round"/>
</svg>
