<svg width="20" height="20" viewBox="0 0 20 20" fill="none" xmlns="http://www.w3.org/2000/svg">
<g clip-path="url(#clip0_40_67)">
<path d="M0.0223389 0.646759H4.01638L4.49997 2.99997" stroke="black"/>
<path d="M6.38976 12.2098L4.51198 3.0639L19.2288 3.29605L16.8145 12.2098H6.38976Z" stroke="black"/>
<path d="M17.5745 14.9046H6.37481C6.21336 14.9086 6.05285 14.8761 5.90297 14.8092C5.7531 14.7423 5.61696 14.6422 5.50276 14.5152C5.38856 14.3881 5.29868 14.2366 5.23853 14.0698C5.17837 13.903 5.1492 13.7244 5.15276 13.5448C5.15276 12.2098 6.38972 12.2098 6.38972 12.2098" stroke="black"/>
<path d="M7.59688 19.3781C8.32324 19.3781 8.91208 18.7229 8.91208 17.9146C8.91208 17.1063 8.32324 16.4511 7.59688 16.4511C6.87051 16.4511 6.28168 17.1063 6.28168 17.9146C6.28168 18.7229 6.87051 19.3781 7.59688 19.3781Z" stroke="black"/>
<path d="M15.4545 19.3781C16.1809 19.3781 16.7697 18.7229 16.7697 17.9146C16.7697 17.1063 16.1809 16.4511 15.4545 16.4511C14.7282 16.4511 14.1393 17.1063 14.1393 17.9146C14.1393 18.7229 14.7282 19.3781 15.4545 19.3781Z" stroke="black"/>
</g>
<defs>
<clipPath id="clip0_40_67">
<rect width="20" height="20" fill="white"/>
</clipPath>
</defs>
</svg>
