<svg width="24" height="45" viewBox="0 0 24 45" fill="none" xmlns="http://www.w3.org/2000/svg">
<path d="M22.5523 31.5486C22.4239 34.9971 21.2926 38.0472 19.5922 40.1924C17.8914 42.3381 15.6497 43.5505 13.2765 43.4301C10.9033 43.3096 8.7602 41.8747 7.22536 39.5648C5.69087 37.2554 4.79062 34.1022 4.91905 30.6537C5.04748 27.2052 6.17876 24.1551 7.87915 22.0099C9.57993 19.8642 11.8216 18.6518 14.1948 18.7722C16.568 18.8927 18.7111 20.3276 20.246 22.6375C21.7805 24.9469 22.6807 28.1001 22.5523 31.5486Z" fill="#A00C30" stroke="#A00C30"/>
<path d="M7.84769 34.6238C7.84769 34.6238 0.347717 4.27342 19.8478 4.27341" stroke="#A00C30" stroke-width="6"/>
</svg>
