<svg width="24" height="45" viewBox="0 0 24 45" fill="none" xmlns="http://www.w3.org/2000/svg">
<path d="M22.5523 31.3638C22.4239 34.8123 21.2926 37.8624 19.5922 40.0076C17.8915 42.1533 15.6498 43.3657 13.2766 43.2453C10.9034 43.1248 8.76026 41.6899 7.22542 39.38C5.69093 37.0706 4.79068 33.9174 4.91911 30.4689C5.04754 27.0204 6.17882 23.9703 7.87921 21.8251C9.57999 19.6794 11.8217 18.467 14.1949 18.5874C16.5681 18.7079 18.7112 20.1428 20.246 22.4527C21.7805 24.7621 22.6808 27.9153 22.5523 31.3638Z" fill="#DD2A27" stroke="#DD2A27"/>
<path d="M7.84769 34.439C7.84769 34.439 0.347717 4.0886 19.8478 4.08859" stroke="#DD2A27" stroke-width="6"/>
</svg>
