<svg width="64" height="64" viewBox="0 0 64 64" fill="none" xmlns="http://www.w3.org/2000/svg">
<path d="M45.5599 46.83V56.26H7.93994V20.6L19.8999 7.73999H45.5599V21.29" stroke="black" stroke-width="2"/>
<path d="M19.9199 7.73999L19.8999 20.6H7.93994" stroke="black" stroke-width="2"/>
<path d="M13.0901 47.6699H31.1001" stroke="black" stroke-width="2"/>
<path d="M13.0901 41.1399H29.1001" stroke="black" stroke-width="2"/>
<path d="M13.0901 35.04H33.1001" stroke="black" stroke-width="2"/>
<path d="M13.0901 28.9399H39.1001" stroke="black" stroke-width="2"/>
<path d="M34.45 43.2301L34.6 47.5301C34.6019 47.6045 34.6207 47.6775 34.655 47.7435C34.6892 47.8095 34.7381 47.8669 34.7979 47.9112C34.8576 47.9556 34.9267 47.9857 34.9998 47.9994C35.073 48.013 35.1483 48.0099 35.22 47.9901L39.35 46.8801C39.4892 46.8512 39.6114 46.7685 39.69 46.6501L57.76 22.2101C57.8559 22.0801 57.9252 21.9325 57.964 21.7757C58.0028 21.6189 58.0104 21.456 57.9862 21.2963C57.9621 21.1365 57.9067 20.9831 57.8233 20.8448C57.7399 20.7065 57.63 20.586 57.5 20.4901L54.36 18.1501C54.2305 18.0529 54.0829 17.9825 53.9259 17.943C53.7689 17.9034 53.6056 17.8955 53.4455 17.9197C53.2854 17.9439 53.1318 17.9997 52.9935 18.0839C52.8552 18.1681 52.735 18.279 52.64 18.4101L34.57 42.8401C34.4904 42.9545 34.4485 43.0908 34.45 43.2301Z" stroke="black" stroke-width="2"/>
<path d="M50.2 21.7L55.27 25.57" stroke="black" stroke-width="2"/>
</svg>
