<svg width="24" height="24" viewBox="0 0 24 24" fill="none" xmlns="http://www.w3.org/2000/svg">
<path d="M16.9494 20.4443H6.88927C6.79045 20.4443 6.69568 20.4051 6.62581 20.3352C6.55593 20.2653 6.51668 20.1705 6.51668 20.0718L5.77148 6.65826H18.056L17.3108 20.0718C17.3108 20.1686 17.2731 20.2618 17.2056 20.3313C17.1382 20.4009 17.0462 20.4414 16.9494 20.4443Z" stroke="black" stroke-width="2"/>
<path d="M19.0022 6.65454H4.84353C4.7392 6.65454 4.65723 6.59493 4.65723 6.52414L5.00374 4.90334C5.01872 4.86721 5.04491 4.83685 5.07845 4.81673C5.11199 4.79661 5.1511 4.78778 5.19003 4.79157H18.6557C18.6946 4.78778 18.7337 4.79661 18.7672 4.81673C18.8008 4.83685 18.827 4.86721 18.8419 4.90334L19.1885 6.52414C19.1885 6.59493 19.1065 6.65454 19.0022 6.65454Z" stroke="black" stroke-width="2"/>
<path d="M8.94238 8.7337V18.0485" stroke="black" stroke-width="2"/>
<path d="M11.9229 8.7337V18.0485" stroke="black" stroke-width="2"/>
<path d="M14.9038 8.7337V18.0485" stroke="black" stroke-width="2"/>
<path d="M9.58691 4.7916V2.82057C9.58691 2.72174 9.62614 2.62698 9.69607 2.5571C9.76591 2.48723 9.86068 2.44797 9.95953 2.44797H13.8867C13.9855 2.44797 14.0803 2.48723 14.1501 2.5571C14.22 2.62698 14.2593 2.72174 14.2593 2.82057V4.7916" stroke="black" stroke-width="2"/>
</svg>
