<svg width="65" height="65" viewBox="0 0 65 65" fill="none" xmlns="http://www.w3.org/2000/svg">
<rect x="0.5" y="0.5" width="64" height="64" rx="32" stroke="#DCDCDC"/>
<path d="M39.0342 43.5776H25.9561C25.8276 43.5776 25.7044 43.5266 25.6136 43.4358C25.5227 43.3449 25.4717 43.2217 25.4717 43.0933L24.5029 25.6558H40.4728L39.504 43.0933C39.5041 43.2192 39.455 43.3403 39.3673 43.4307C39.2796 43.5212 39.1601 43.5739 39.0342 43.5776Z" stroke="#DD2A27" stroke-width="2"/>
<path d="M41.7031 25.6509H23.2969C23.1612 25.6509 23.0547 25.5734 23.0547 25.4814L23.5052 23.3743C23.5246 23.3274 23.5587 23.2879 23.6023 23.2617C23.6459 23.2356 23.6967 23.2241 23.7473 23.229H41.2527C41.3033 23.2241 41.3541 23.2356 41.3977 23.2617C41.4413 23.2879 41.4754 23.3274 41.4948 23.3743L41.9453 25.4814C41.9453 25.5734 41.8388 25.6509 41.7031 25.6509Z" stroke="#DD2A27" stroke-width="2"/>
<path d="M28.625 28.3538V40.4631" stroke="#DD2A27" stroke-width="2"/>
<path d="M32.5 28.3538V40.4631" stroke="#DD2A27" stroke-width="2"/>
<path d="M36.375 28.3538V40.4631" stroke="#DD2A27" stroke-width="2"/>
<path d="M29.463 23.2291V20.6667C29.463 20.5383 29.514 20.4151 29.6049 20.3242C29.6957 20.2334 29.8189 20.1824 29.9474 20.1824H35.0527C35.1812 20.1824 35.3044 20.2334 35.3952 20.3242C35.486 20.4151 35.5371 20.5383 35.5371 20.6667V23.2291" stroke="#DD2A27" stroke-width="2"/>
</svg>
