<svg width="31" height="31" viewBox="0 0 31 31" fill="none" xmlns="http://www.w3.org/2000/svg">
<path d="M22.0342 26.5776H8.95605C8.82759 26.5776 8.70439 26.5266 8.61355 26.4358C8.52271 26.3449 8.47168 26.2217 8.47168 26.0933L7.50293 8.65576H23.4728L22.504 26.0933C22.5041 26.2192 22.455 26.3403 22.3673 26.4307C22.2796 26.5212 22.1601 26.5739 22.0342 26.5776Z" stroke="#DD2A27" stroke-width="2"/>
<path d="M24.7031 8.65089H6.29688C6.16125 8.65089 6.05469 8.57339 6.05469 8.48136L6.50516 6.37433C6.52463 6.32736 6.55868 6.28789 6.60228 6.26173C6.64588 6.23557 6.69673 6.2241 6.74734 6.22902H24.2527C24.3033 6.2241 24.3541 6.23557 24.3977 6.26173C24.4413 6.28789 24.4754 6.32736 24.4948 6.37433L24.9453 8.48136C24.9453 8.57339 24.8388 8.65089 24.7031 8.65089Z" stroke="#DD2A27" stroke-width="2"/>
<path d="M11.625 11.3538V23.4631" stroke="#DD2A27" stroke-width="2"/>
<path d="M15.5 11.3538V23.4631" stroke="#DD2A27" stroke-width="2"/>
<path d="M19.375 11.3538V23.4631" stroke="#DD2A27" stroke-width="2"/>
<path d="M12.463 6.22909V3.66675C12.463 3.53828 12.514 3.41508 12.6049 3.32424C12.6957 3.23341 12.8189 3.18237 12.9474 3.18237H18.0527C18.1812 3.18237 18.3044 3.23341 18.3952 3.32424C18.486 3.41508 18.5371 3.53828 18.5371 3.66675V6.22909" stroke="#DD2A27" stroke-width="2"/>
</svg>
