<svg width="31" height="31" viewBox="0 0 31 31" fill="none" xmlns="http://www.w3.org/2000/svg">
<path d="M22.0342 26.5776H8.95605C8.82759 26.5776 8.70439 26.5266 8.61355 26.4358C8.52271 26.3449 8.47168 26.2217 8.47168 26.0933L7.50293 8.65576H23.4728L22.504 26.0933C22.5041 26.2192 22.455 26.3403 22.3673 26.4307C22.2796 26.5212 22.1601 26.5739 22.0342 26.5776Z" stroke="#A00C30" stroke-width="2"/>
<path d="M24.7031 8.65101H6.29688C6.16125 8.65101 6.05469 8.57351 6.05469 8.48148L6.50516 6.37445C6.52463 6.32748 6.55868 6.28801 6.60228 6.26185C6.64588 6.23569 6.69673 6.22422 6.74734 6.22914H24.2527C24.3033 6.22422 24.3541 6.23569 24.3977 6.26185C24.4413 6.28801 24.4754 6.32748 24.4948 6.37445L24.9453 8.48148C24.9453 8.57351 24.8388 8.65101 24.7031 8.65101Z" stroke="#A00C30" stroke-width="2"/>
<path d="M11.625 11.3538V23.4631" stroke="#A00C30" stroke-width="2"/>
<path d="M15.5 11.3538V23.4631" stroke="#A00C30" stroke-width="2"/>
<path d="M19.375 11.3538V23.4631" stroke="#A00C30" stroke-width="2"/>
<path d="M12.4629 6.22909V3.66675C12.4629 3.53828 12.5139 3.41508 12.6048 3.32424C12.6956 3.23341 12.8188 3.18237 12.9473 3.18237H18.0526C18.1811 3.18237 18.3043 3.23341 18.3951 3.32424C18.4859 3.41508 18.537 3.53828 18.537 3.66675V6.22909" stroke="#A00C30" stroke-width="2"/>
</svg>
