<svg width="40" height="40" viewBox="0 0 40 40" fill="none" xmlns="http://www.w3.org/2000/svg">
<path d="M11.1375 33.225L6.94375 33.7C6.84999 33.711 6.75494 33.7007 6.66575 33.6697C6.57656 33.6388 6.49554 33.588 6.42878 33.5212C6.36202 33.4545 6.31125 33.3735 6.28029 33.2843C6.24933 33.1951 6.23897 33.1 6.25 33.0063L6.73125 28.8375C6.74839 28.6977 6.81226 28.5677 6.9125 28.4688L28.7875 6.66251C28.9036 6.54629 29.0415 6.45409 29.1932 6.39118C29.345 6.32828 29.5076 6.2959 29.6719 6.2959C29.8361 6.2959 29.9988 6.32828 30.1506 6.39118C30.3023 6.45409 30.4402 6.54629 30.5563 6.66251L33.375 9.46876C33.4922 9.58496 33.5852 9.72321 33.6486 9.87554C33.7121 10.0279 33.7448 10.1912 33.7448 10.3563C33.7448 10.5213 33.7121 10.6847 33.6486 10.837C33.5852 10.9893 33.4922 11.1276 33.375 11.2438L11.5 33.0438C11.4027 33.1428 11.2751 33.2065 11.1375 33.225Z" stroke="black" stroke-width="2"/>
<path d="M30.4313 14.1813L25.7813 9.6626" stroke="black" stroke-width="2"/>
</svg>
