<svg width="40" height="40" viewBox="0 0 40 40" fill="none" xmlns="http://www.w3.org/2000/svg">
<path d="M33.225 28.8625L33.7 33.0562C33.711 33.15 33.7007 33.2451 33.6697 33.3343C33.6388 33.4234 33.588 33.5045 33.5212 33.5712C33.4545 33.638 33.3735 33.6887 33.2843 33.7197C33.1951 33.7507 33.1 33.761 33.0063 33.75L28.8375 33.2687C28.6977 33.2516 28.5677 33.1877 28.4688 33.0875L6.66251 11.2125C6.54629 11.0964 6.45409 10.9585 6.39118 10.8068C6.32828 10.655 6.2959 10.4924 6.2959 10.3281C6.2959 10.1639 6.32828 10.0012 6.39118 9.84945C6.45409 9.6977 6.54629 9.55984 6.66251 9.44375L9.46876 6.625C9.58496 6.50784 9.72321 6.41484 9.87554 6.35138C10.0279 6.28792 10.1912 6.25525 10.3563 6.25525C10.5213 6.25525 10.6847 6.28792 10.837 6.35138C10.9893 6.41484 11.1276 6.50784 11.2438 6.625L33.0438 28.5C33.1428 28.5973 33.2065 28.7249 33.225 28.8625Z" stroke="black" stroke-width="2"/>
<path d="M14.1813 9.56873L9.66251 14.2187" stroke="black" stroke-width="2"/>
</svg>
