<svg width="301" height="302" viewBox="0 0 301 302" fill="none" xmlns="http://www.w3.org/2000/svg">
<path d="M21.7284 47.343H72.1459L102.105 178.513H233.698L264.174 77.396L217.731 76.7376M78.4011 74.7622L124.844 75.4207" stroke="#B3B3B3" stroke-width="10"/>
<path d="M243.293 209.083H101.917C99.8786 209.128 97.8525 208.76 95.9606 208.001C94.0687 207.241 92.3502 206.107 90.9086 204.665C89.4671 203.224 88.3325 201.505 87.5732 199.613C86.8138 197.721 86.4455 195.695 86.4905 193.657C86.4905 178.513 102.105 178.513 102.105 178.513" stroke="#B3B3B3" stroke-width="10"/>
<path d="M117.343 259.83C126.512 259.83 133.945 252.397 133.945 243.228C133.945 234.059 126.512 226.626 117.343 226.626C108.174 226.626 100.741 234.059 100.741 243.228C100.741 252.397 108.174 259.83 117.343 259.83Z" stroke="#B3B3B3" stroke-width="10"/>
<path d="M216.532 259.83C225.701 259.83 233.134 252.397 233.134 243.228C233.134 234.059 225.701 226.626 216.532 226.626C207.363 226.626 199.93 234.059 199.93 243.228C199.93 252.397 207.363 259.83 216.532 259.83Z" stroke="#B3B3B3" stroke-width="10"/>
<path d="M130 47L209.163 127.049" stroke="#B3B3B3" stroke-width="10"/>
<path d="M210.049 47L130.886 127.049" stroke="#B3B3B3" stroke-width="10"/>
</svg>
