<svg width="30" height="30" viewBox="0 0 30 30" fill="none" xmlns="http://www.w3.org/2000/svg">
<path d="M16.0969 11.2969H12.0234V26.0297H16.2422V19.2797C16.2422 17.4891 16.5797 15.7687 18.7875 15.7687C20.9953 15.7687 21 17.8031 21 19.3922V26.0297H25.2187V18.4969C25.2187 14.8594 24.4453 11.5031 20.1516 11.5031C18.5672 11.4422 17.0344 11.7328 16.1813 13.0266C16.1764 13.0382 16.1674 13.0476 16.156 13.053C16.1447 13.0585 16.1317 13.0596 16.1196 13.0561C16.1075 13.0527 16.097 13.0449 16.0903 13.0342C16.0835 13.0236 16.0808 13.0109 16.0828 12.9984L16.0969 11.2969Z" stroke="#818181" stroke-width="2" stroke-linecap="round"/>
<path d="M5.11865 11.2969H9.3749V26.0297H5.11865V11.2969Z" stroke="#818181" stroke-width="2" stroke-linecap="round"/>
<path d="M7.23748 3.97029C6.74891 3.96844 6.27075 4.11151 5.86349 4.38141C5.45622 4.65131 5.13814 5.03592 4.94946 5.48659C4.76077 5.93727 4.70997 6.43378 4.80347 6.91333C4.89697 7.39288 5.13057 7.83393 5.47474 8.18072C5.8189 8.52751 6.25817 8.76445 6.737 8.86159C7.21582 8.95872 7.7127 8.91169 8.1648 8.72643C8.61689 8.54118 9.0039 8.22602 9.27689 7.82082C9.54987 7.41561 9.69656 6.93856 9.69842 6.44998C9.7009 6.12523 9.63907 5.8032 9.5165 5.50246C9.39394 5.20172 9.21306 4.92821 8.98429 4.6977C8.75553 4.46719 8.4834 4.28424 8.18359 4.1594C7.88379 4.03455 7.56224 3.97028 7.23748 3.97029Z" stroke="#818181" stroke-width="2" stroke-linecap="round"/>
</svg>
