<svg width="43" height="43" viewBox="0 0 43 43" fill="none" xmlns="http://www.w3.org/2000/svg">
<path d="M21.0703 39.4167C20.6606 39.4167 20.3094 39.2972 20.0168 39.0583C19.7241 38.8195 19.5046 38.5059 19.3583 38.1177C18.8023 36.4455 18.0999 34.8778 17.2513 33.4146C16.4319 31.9514 15.276 30.2344 13.7835 28.2636C12.291 26.2927 11.0765 24.4115 10.1401 22.6198C9.23289 20.8281 8.7793 18.6632 8.7793 16.125C8.7793 12.6313 9.9645 9.67501 12.3349 7.25626C14.7346 4.80765 17.6464 3.58334 21.0703 3.58334C24.4942 3.58334 27.3913 4.80765 29.7617 7.25626C32.1614 9.67501 33.3612 12.6313 33.3612 16.125C33.3612 18.8424 32.8491 21.1118 31.8249 22.9333C30.8299 24.725 29.6739 26.5017 28.3571 28.2636C26.7768 30.4136 25.577 32.2052 24.7576 33.6386C23.9674 35.042 23.309 36.5351 22.7822 38.1177C22.6359 38.5358 22.4018 38.8642 22.0799 39.1031C21.7872 39.3122 21.4507 39.4167 21.0703 39.4167ZM21.0703 20.6042C22.2994 20.6042 23.3382 20.1712 24.1869 19.3052C25.0356 18.4392 25.4599 17.3792 25.4599 16.125C25.4599 14.8708 25.0356 13.8108 24.1869 12.9448C23.3382 12.0788 22.2994 11.6458 21.0703 11.6458C19.8412 11.6458 18.8023 12.0788 17.9536 12.9448C17.105 13.8108 16.6806 14.8708 16.6806 16.125C16.6806 17.3792 17.105 18.4392 17.9536 19.3052C18.8023 20.1712 19.8412 20.6042 21.0703 20.6042Z" fill="white"/>
</svg>
