<svg width="31" height="31" viewBox="0 0 31 31" fill="none" xmlns="http://www.w3.org/2000/svg">
<path d="M16.062 10.3899L20.8622 15.19L16.062 19.9902" stroke="black" stroke-width="2"/>
<path d="M20.8619 15.1899H3.25488" stroke="black" stroke-width="2"/>
<path d="M10.8018 18.256V24.921C10.8011 25.0995 10.8357 25.2764 10.9036 25.4415C10.9715 25.6066 11.0713 25.7567 11.1973 25.8831C11.3233 26.0096 11.473 26.1099 11.6379 26.1784C11.8027 26.2468 11.9795 26.2821 12.158 26.2821H24.3788C24.5573 26.2821 24.7341 26.2468 24.8989 26.1784C25.0638 26.1099 25.2135 26.0096 25.3395 25.8831C25.4655 25.7567 25.5653 25.6066 25.6332 25.4415C25.7011 25.2764 25.7357 25.0995 25.735 24.921V5.45879C25.735 5.28068 25.7 5.10432 25.6318 4.93977C25.5637 4.77523 25.4637 4.62571 25.3378 4.49978C25.2119 4.37384 25.0624 4.27394 24.8978 4.20578C24.7333 4.13762 24.5569 4.10254 24.3788 4.10254H12.158C11.9799 4.10254 11.8036 4.13762 11.639 4.20578C11.4745 4.27394 11.3249 4.37384 11.199 4.49978C11.0731 4.62571 10.9732 4.77523 10.905 4.93977C10.8368 5.10432 10.8018 5.28068 10.8018 5.45879V11.8719" stroke="black" stroke-width="2"/>
</svg>
