<svg width="53" height="60" viewBox="0 0 53 60" fill="none" xmlns="http://www.w3.org/2000/svg">
<path d="M33.984 17.808C33.984 19.664 33.616 21.296 32.88 22.704C32.144 24.08 31.2 25.28 30.048 26.304C28.896 27.328 27.696 28.192 26.448 28.896C25.68 29.312 24.832 29.792 23.904 30.336C23.008 30.848 22.048 31.296 21.024 31.68C20 32.064 18.896 32.256 17.712 32.256C17.392 33.92 16.88 35.488 16.176 36.96C15.472 38.4 14.56 39.68 13.44 40.8C13.152 41.088 12.8 41.392 12.384 41.712C12 42 11.568 42.272 11.088 42.528C11.824 42.784 12.448 42.992 12.96 43.152C13.504 43.344 14.16 43.568 14.928 43.824C15.792 44.112 16.528 44.432 17.136 44.784C17.744 45.136 18.336 45.488 18.912 45.84C19.488 46.192 20.128 46.48 20.832 46.704C21.536 46.928 22.416 47.04 23.472 47.04C24.496 47.04 25.504 46.88 26.496 46.56C27.52 46.272 28.368 45.808 29.04 45.168C29.744 44.56 30.096 43.76 30.096 42.768C30.096 41.84 29.776 41.168 29.136 40.752C28.496 40.304 27.712 40.08 26.784 40.08C26.08 40.08 25.504 40.4 25.056 41.04C24.608 41.648 24.288 42.176 24.096 42.624C23.776 43.296 23.504 43.632 23.28 43.632C23.024 43.632 22.896 43.36 22.896 42.816C22.896 42.528 22.944 42.208 23.04 41.856C23.168 41.504 23.344 41.168 23.568 40.848C23.92 40.336 24.336 39.92 24.816 39.6C25.296 39.28 25.952 39.12 26.784 39.12C27.968 39.12 29.04 39.456 30 40.128C30.96 40.768 31.44 41.68 31.44 42.864C31.44 44.016 31.088 45.024 30.384 45.888C29.712 46.752 28.832 47.424 27.744 47.904C26.688 48.384 25.568 48.624 24.384 48.624C22.944 48.624 21.792 48.496 20.928 48.24C20.064 48.016 19.248 47.712 18.48 47.328C17.744 46.976 16.816 46.624 15.696 46.272C14.896 46.016 13.952 45.6 12.864 45.024C11.776 44.48 10.816 44.048 9.984 43.728C9.888 43.664 9.776 43.6 9.648 43.536C9.552 43.504 9.44 43.456 9.312 43.392C8.416 43.776 7.472 44.08 6.48 44.304C5.52 44.56 4.576 44.688 3.648 44.688C3.328 44.688 2.928 44.56 2.448 44.304C2 44.08 1.6 43.776 1.248 43.392C0.928 43.008 0.768 42.592 0.768 42.144C0.768 41.856 0.88 41.52 1.104 41.136C1.36 40.72 1.664 40.368 2.016 40.08C2.4 39.792 2.768 39.648 3.12 39.648C3.856 39.648 4.736 39.84 5.76 40.224C6.816 40.608 7.792 41.024 8.688 41.472C9.008 41.152 9.312 40.848 9.6 40.56C9.888 40.24 10.176 39.936 10.464 39.648C11.424 38.688 12.24 37.552 12.912 36.24C13.584 34.928 14.176 33.552 14.688 32.112C13.216 31.984 11.776 31.744 10.368 31.392C8.96 31.008 7.68 30.48 6.528 29.808C5.408 29.136 4.496 28.304 3.792 27.312C3.12 26.288 2.784 25.072 2.784 23.664C2.784 22.16 3.168 20.752 3.936 19.44C4.736 18.096 5.776 17.008 7.056 16.176C8.336 15.344 9.712 14.928 11.184 14.928C13.008 14.928 14.464 15.248 15.552 15.888C16.64 16.528 17.184 17.76 17.184 19.584C17.184 20.448 16.912 21.296 16.368 22.128C15.856 22.928 15.328 23.504 14.784 23.856C14.656 23.92 14.576 23.952 14.544 23.952C14.256 23.952 14.112 23.792 14.112 23.472C14.112 23.28 14.176 23.136 14.304 23.04C14.656 22.752 15.056 22.288 15.504 21.648C15.984 21.008 16.224 20.32 16.224 19.584C16.224 18.08 15.76 17.088 14.832 16.608C13.904 16.128 12.688 15.888 11.184 15.888C9.872 15.888 8.768 16.272 7.872 17.04C6.976 17.808 6.304 18.8 5.856 20.016C5.408 21.2 5.184 22.48 5.184 23.856C5.184 25.552 5.648 26.912 6.576 27.936C7.504 28.96 8.72 29.728 10.224 30.24C11.728 30.72 13.328 31.04 15.024 31.2C15.248 30.56 15.456 29.936 15.648 29.328C15.84 28.72 16.032 28.112 16.224 27.504C16.96 25.36 17.616 23.216 18.192 21.072C18.8 18.896 19.568 16.88 20.496 15.024C20.912 14.16 21.392 13.312 21.936 12.48C22.512 11.616 23.2 10.896 24 10.32C24.832 9.744 25.856 9.456 27.072 9.456C27.776 9.456 28.48 9.504 29.184 9.6C29.888 9.696 30.448 9.904 30.864 10.224C31.856 11.024 32.624 12.048 33.168 13.296C33.712 14.512 33.984 16.016 33.984 17.808ZM30.624 17.808C30.784 17.168 30.896 16.592 30.96 16.08C31.056 15.568 31.104 15.104 31.104 14.688C31.104 13.472 30.592 12.464 29.568 11.664C29.248 11.408 28.912 11.264 28.56 11.232C28.24 11.168 27.792 11.136 27.216 11.136C25.552 11.136 24.288 11.584 23.424 12.48C22.592 13.344 21.904 14.336 21.36 15.456C20.432 17.312 19.728 19.296 19.248 21.408C18.768 23.488 18.4 26.048 18.144 29.088C18.112 29.472 18.08 29.856 18.048 30.24C18.016 30.592 17.968 30.944 17.904 31.296C18.992 31.264 20 31.072 20.928 30.72C21.856 30.336 22.736 29.888 23.568 29.376C24.4 28.864 25.184 28.4 25.92 27.984C26.784 27.504 27.488 26.848 28.032 26.016C28.608 25.152 29.04 24.224 29.328 23.232C29.648 22.208 29.904 21.216 30.096 20.256C30.288 19.296 30.464 18.48 30.624 17.808ZM7.44 42.48C6.864 42.192 6.272 41.936 5.664 41.712C5.056 41.488 4.48 41.376 3.936 41.376C3.584 41.376 3.248 41.472 2.928 41.664C2.64 41.856 2.496 42.096 2.496 42.384C2.496 42.8 2.608 43.12 2.832 43.344C3.056 43.6 3.328 43.728 3.648 43.728C4.416 43.728 5.104 43.6 5.712 43.344C6.352 43.12 6.928 42.832 7.44 42.48Z" fill="black"/>
<path d="M28.932 59.012C28.188 59.012 27.48 58.796 26.808 58.364C26.136 57.932 25.632 57.284 25.296 56.42C25.176 56.108 25.104 55.772 25.08 55.412C25.032 55.076 25.008 54.74 25.008 54.404C25.008 54.068 25.068 53.9 25.188 53.9C25.308 53.9 25.368 53.996 25.368 54.188C25.368 55.316 25.656 56.168 26.232 56.744C26.784 57.32 27.492 57.608 28.356 57.608C29.196 57.608 30.012 57.368 30.804 56.888C31.572 56.408 32.292 55.796 32.964 55.052C34.092 53.828 35.112 52.436 36.024 50.876C36.96 49.292 37.8 47.66 38.544 45.98C38.736 45.572 39.012 44.924 39.372 44.036C39.732 43.124 40.128 42.14 40.56 41.084C40.992 40.004 41.412 39.032 41.82 38.168C42.18 37.352 42.48 36.704 42.72 36.224C42.984 35.744 43.332 35.336 43.764 35C44.196 34.664 44.844 34.328 45.708 33.992C45.324 34.016 44.964 34.052 44.628 34.1C44.292 34.124 44.028 34.136 43.836 34.136C42.924 34.16 42.012 34.22 41.1 34.316C40.188 34.412 39.372 34.592 38.652 34.856C37.932 35.096 37.416 35.444 37.104 35.9C36.888 36.212 36.78 36.572 36.78 36.98C36.78 37.388 36.888 37.784 37.104 38.168C37.32 38.552 37.596 38.828 37.932 38.996C37.98 39.044 38.004 39.08 38.004 39.104C38.004 39.152 37.944 39.212 37.824 39.284C37.728 39.332 37.62 39.344 37.5 39.32C37.308 39.2 37.068 39.008 36.78 38.744C36.492 38.456 36.228 38.156 35.988 37.844C35.772 37.532 35.628 37.268 35.556 37.052C35.46 36.764 35.412 36.476 35.412 36.188C35.412 35.612 35.616 35.144 36.024 34.784C36.456 34.424 37.008 34.148 37.68 33.956C38.352 33.764 39.072 33.632 39.84 33.56C40.632 33.464 41.388 33.416 42.108 33.416C42.852 33.392 43.488 33.38 44.016 33.38H47.904C47.952 33.38 47.976 33.392 47.976 33.416C47.976 33.488 47.892 33.596 47.724 33.74C47.58 33.86 47.484 33.92 47.436 33.92C46.764 33.944 46.164 34.196 45.636 34.676C45.132 35.156 44.688 35.708 44.304 36.332C43.944 36.932 43.644 37.484 43.404 37.988C43.26 38.276 43.032 38.744 42.72 39.392C42.432 40.016 42.108 40.736 41.748 41.552C41.412 42.344 41.064 43.136 40.704 43.928C40.368 44.72 40.068 45.404 39.804 45.98C39.18 47.42 38.592 48.764 38.04 50.012C37.512 51.236 36.924 52.388 36.276 53.468C35.628 54.548 34.824 55.604 33.864 56.636C33.264 57.284 32.508 57.836 31.596 58.292C30.66 58.772 29.772 59.012 28.932 59.012Z" fill="black"/>
<path d="M47.584 15.84C46.9013 15.84 46.56 15.5093 46.56 14.848C46.56 14.1227 46.8907 13.76 47.552 13.76C48.2347 13.76 48.576 14.0907 48.576 14.752C48.576 15.4773 48.2453 15.84 47.584 15.84ZM43.808 28.32C42.4 28.32 41.696 27.5413 41.696 25.984C41.696 24.8533 42.0267 23.6587 42.688 22.4L45.088 17.696H45.184C45.248 17.7813 45.376 17.824 45.568 17.824C45.9733 17.824 46.5067 17.5787 47.168 17.088L47.232 17.152L44.512 22.432C43.3813 24.608 42.816 26.1227 42.816 26.976C42.816 27.36 42.9227 27.6267 43.136 27.776C43.3493 27.9253 43.5947 28 43.872 28C44.1707 28 44.4587 27.936 44.736 27.808C45.0347 27.68 45.2907 27.5413 45.504 27.392C46.08 26.944 46.56 26.432 46.944 25.856C47.3493 25.2587 47.7013 24.6613 48 24.064C48.2987 23.4667 48.5653 22.9653 48.8 22.56C48.864 22.4533 48.928 22.4213 48.992 22.464C49.056 22.4853 49.0667 22.5493 49.024 22.656C48.5973 23.552 48.128 24.4693 47.616 25.408C47.104 26.3467 46.4533 27.0933 45.664 27.648C45.3867 27.84 45.088 28 44.768 28.128C44.4693 28.256 44.1493 28.32 43.808 28.32Z" fill="black"/>
</svg>
