<svg width="43" height="43" viewBox="0 0 43 43" fill="none" xmlns="http://www.w3.org/2000/svg">
<path d="M7.02342 35.8333C6.05771 35.8333 5.23099 35.4825 4.54328 34.7807C3.85557 34.079 3.51172 33.2354 3.51172 32.25V10.75C3.51172 9.76459 3.85557 8.92101 4.54328 8.21928C5.23099 7.51754 6.05771 7.16667 7.02342 7.16667H35.1171C36.0828 7.16667 36.9095 7.51754 37.5972 8.21928C38.2849 8.92101 38.6288 9.76459 38.6288 10.75V32.25C38.6288 33.2354 38.2849 34.079 37.5972 34.7807C36.9095 35.4825 36.0828 35.8333 35.1171 35.8333H7.02342ZM21.0702 23.2917L7.02342 14.3333V32.25H35.1171V14.3333L21.0702 23.2917ZM21.0702 19.7083L35.1171 10.75H7.02342L21.0702 19.7083ZM7.02342 14.3333V10.75V32.25V14.3333Z" fill="white"/>
</svg>
