<svg width="43" height="43" viewBox="0 0 43 43" fill="none" xmlns="http://www.w3.org/2000/svg">
<path d="M10.5351 40.4724C9.56942 40.4724 8.74271 40.1335 8.055 39.4555C7.36729 38.7776 7.02344 37.9626 7.02344 37.0106V5.8538C7.02344 4.90179 7.36729 4.08681 8.055 3.40886C8.74271 2.73091 9.56942 2.39194 10.5351 2.39194H28.0937C29.0594 2.39194 29.8861 2.73091 30.5738 3.40886C31.2615 4.08681 31.6054 4.90179 31.6054 5.8538V12.7775H28.0937V11.0466H10.5351V31.8178H28.0937V30.0869H31.6054V37.0106C31.6054 37.9626 31.2615 38.7776 30.5738 39.4555C29.8861 40.1335 29.0594 40.4724 28.0937 40.4724H10.5351ZM10.5351 35.2796V37.0106H28.0937V35.2796H10.5351ZM26.25 28.3559L18.7877 20.9995L21.2458 18.5762L26.25 23.5093L36.1706 13.7295L38.6288 16.1528L26.25 28.3559ZM10.5351 7.58473H28.0937V5.8538H10.5351V7.58473Z" fill="white"/>
</svg>
