<svg width="64" height="64" viewBox="0 0 64 64" fill="none" xmlns="http://www.w3.org/2000/svg">
<path d="M48.1101 30V41.75C48.1148 42.082 48.0227 42.4082 47.8452 42.6888C47.6676 42.9694 47.4122 43.1922 47.1101 43.33L35.2301 48.56C33.7657 49.2113 32.1706 49.5149 30.5693 49.4473C28.9681 49.3796 27.4043 48.9425 26.0001 48.17L17.4701 43.49C17.1973 43.3409 16.9698 43.121 16.8114 42.8535C16.6531 42.5861 16.5697 42.2808 16.5701 41.97V30.33" stroke="black" stroke-width="2" stroke-linecap="round"/>
<path d="M29.3201 15.2199L8.93008 24.8799C8.78414 24.9501 8.66098 25.0601 8.57479 25.1972C8.4886 25.3343 8.44287 25.493 8.44287 25.6549C8.44287 25.8169 8.4886 25.9755 8.57479 26.1126C8.66098 26.2498 8.78414 26.3597 8.93008 26.4299L28.6701 36.4299C29.6275 36.8981 30.6793 37.1415 31.7451 37.1415C32.8109 37.1415 33.8626 36.8981 34.8201 36.4299L55.1001 26.5999C55.246 26.5297 55.3692 26.4198 55.4554 26.2826C55.5416 26.1455 55.5873 25.9869 55.5873 25.8249C55.5873 25.663 55.5416 25.5043 55.4554 25.3672C55.3692 25.2301 55.246 25.1201 55.1001 25.0499L35.3701 15.2799C34.4322 14.8117 33.4002 14.563 32.352 14.5526C31.3038 14.5422 30.267 14.7704 29.3201 15.2199Z" stroke="black" stroke-width="2" stroke-linecap="round"/>
<path d="M32.0001 25.8601L10.3301 27.1501L10.6301 39.4501" stroke="black" stroke-width="2" stroke-linecap="round"/>
<path d="M10.6599 44.9201C12.0572 44.9201 13.1899 43.7874 13.1899 42.3901C13.1899 40.9928 12.0572 39.8601 10.6599 39.8601C9.2626 39.8601 8.12988 40.9928 8.12988 42.3901C8.12988 43.7874 9.2626 44.9201 10.6599 44.9201Z" stroke="black" stroke-width="2" stroke-linecap="round"/>
<path d="M11.53 44.76L13.53 51.03H7.79004L9.82004 44.76" stroke="black" stroke-width="2" stroke-linecap="round"/>
</svg>
