<svg width="64" height="64" viewBox="0 0 64 64" fill="none" xmlns="http://www.w3.org/2000/svg">
<path d="M53.8501 43.71H28.6001L17.8501 51.71L17.9501 43.71H10.0901C9.55965 43.71 9.05095 43.4993 8.67587 43.1242C8.3008 42.7492 8.09009 42.2405 8.09009 41.71V12.78C8.09009 12.2496 8.3008 11.7409 8.67587 11.3658C9.05095 10.9907 9.55965 10.78 10.0901 10.78H53.9101C54.4405 10.78 54.9492 10.9907 55.3243 11.3658C55.6994 11.7409 55.9101 12.2496 55.9101 12.78V41.65C55.9101 42.1964 55.6931 42.7203 55.3067 43.1067C54.9204 43.493 54.3964 43.71 53.8501 43.71Z" stroke="black" stroke-width="2"/>
<path d="M14.3101 18.9099H45.0801" stroke="black" stroke-width="2"/>
<path d="M14.3101 26.3301H32.1701" stroke="black" stroke-width="2"/>
<path d="M14.3101 33.75H38.5801" stroke="black" stroke-width="2"/>
</svg>
