<svg width="31" height="31" viewBox="0 0 31 31" fill="none" xmlns="http://www.w3.org/2000/svg">
<path d="M27.1977 26.1127H3.80237C3.7456 26.1131 3.68976 26.0984 3.64058 26.07C3.5914 26.0416 3.55065 26.0007 3.52254 25.9514C3.49443 25.902 3.47996 25.8461 3.48061 25.7894C3.48127 25.7326 3.49703 25.677 3.52628 25.6284L15.2239 5.04243C15.2511 4.99292 15.291 4.95162 15.3396 4.92285C15.3882 4.89409 15.4436 4.87891 15.5 4.87891C15.5565 4.87891 15.6119 4.89409 15.6605 4.92285C15.709 4.95162 15.749 4.99292 15.7761 5.04243L27.4738 25.6284C27.503 25.677 27.5188 25.7326 27.5194 25.7894C27.5201 25.8461 27.5056 25.902 27.4775 25.9514C27.4494 26.0007 27.4087 26.0416 27.3595 26.07C27.3103 26.0984 27.2545 26.1131 27.1977 26.1127Z" stroke="black" stroke-width="2"/>
<path d="M15.5 22.6543V22.9788" stroke="black" stroke-width="2" stroke-linecap="round"/>
<path d="M15.5 11.6348V20.0774" stroke="black" stroke-width="2" stroke-linecap="round"/>
</svg>
