<svg width="30" height="30" viewBox="0 0 30 30" fill="none" xmlns="http://www.w3.org/2000/svg">
<path d="M15 26.6531C21.4359 26.6531 26.6532 21.4358 26.6532 15C26.6532 8.56415 21.4359 3.34686 15 3.34686C8.56421 3.34686 3.34692 8.56415 3.34692 15C3.34692 21.4358 8.56421 26.6531 15 26.6531Z" stroke="#818181" stroke-width="2"/>
<path d="M15 3.20624C16.7047 4.69562 18.0735 6.53019 19.0158 8.58844C19.958 10.6467 20.4522 12.8817 20.4656 15.1453C20.4656 22.7344 17.0531 24.9891 15 26.5078" stroke="#818181" stroke-width="2"/>
<path d="M15 3.20624C13.2927 4.69433 11.9212 6.52833 10.9765 8.58665C10.0318 10.645 9.53543 12.8806 9.52026 15.1453C9.52026 22.7344 12.9328 24.9891 14.9859 26.5078" stroke="#818181" stroke-width="2"/>
<path d="M4.86084 9.25781H25.1952" stroke="#818181" stroke-width="2"/>
<path d="M15 3.20624V26.5078" stroke="#818181" stroke-width="2"/>
<path d="M5.17969 21.2484H24.8344" stroke="#818181" stroke-width="2"/>
<path d="M3.34692 15.1453L26.6532 14.8547" stroke="#818181" stroke-width="2"/>
</svg>
