<svg width="31" height="31" viewBox="0 0 31 31" fill="none" xmlns="http://www.w3.org/2000/svg">
<path d="M15.689 3.54566L6.78131 7.26566C6.69376 7.30274 6.61906 7.36477 6.56652 7.44401C6.51398 7.52325 6.48592 7.61621 6.48584 7.71128V15.6114C6.48521 17.5333 6.98458 19.4222 7.93487 21.0927C8.88517 22.7631 10.2537 24.1576 11.906 25.1391L15.8633 27.4932L19.7674 25.1488C21.4058 24.1631 22.7615 22.7704 23.7027 21.1061C24.644 19.4417 25.1388 17.5623 25.1391 15.6502V7.26566C25.1394 7.16669 25.1094 7.07 25.0532 6.9886C24.9969 6.90719 24.917 6.84499 24.8243 6.81035L16.0426 3.53597C15.9277 3.49451 15.8014 3.49797 15.689 3.54566Z" stroke="#DA1A32" stroke-width="2"/>
<path d="M15.9021 8.67996L17.6652 12.2498C17.6702 12.2593 17.677 12.2676 17.6854 12.2742C17.6937 12.2809 17.7033 12.2858 17.7136 12.2886L21.6565 12.8601C21.6689 12.8613 21.6807 12.8662 21.6903 12.874C21.7 12.8819 21.7071 12.8925 21.7107 12.9045C21.7143 12.9164 21.7144 12.9291 21.7107 12.9411C21.7071 12.953 21.7 12.9636 21.6904 12.9715L18.8422 15.747C18.8371 15.7558 18.8345 15.7659 18.8345 15.7761C18.8345 15.7863 18.8371 15.7963 18.8422 15.8051L19.5155 19.7286C19.5177 19.7409 19.5165 19.7536 19.5118 19.7653C19.5072 19.777 19.4995 19.7872 19.4894 19.7947C19.4794 19.8022 19.4675 19.8068 19.455 19.808C19.4425 19.8091 19.4299 19.8068 19.4186 19.8012L15.8972 17.9461C15.8874 17.9413 15.8767 17.9389 15.8658 17.9389C15.8549 17.9389 15.8441 17.9413 15.8343 17.9461L12.3129 19.8012C12.3016 19.8068 12.289 19.8091 12.2765 19.808C12.264 19.8068 12.2521 19.8022 12.2421 19.7947C12.232 19.7872 12.2243 19.777 12.2197 19.7653C12.2151 19.7536 12.2138 19.7409 12.216 19.7286L12.8893 15.8051C12.8933 15.796 12.8953 15.7861 12.8953 15.7761C12.8953 15.7661 12.8933 15.7562 12.8893 15.747L10.0411 12.9715C10.0315 12.9636 10.0244 12.953 10.0208 12.9411C10.0172 12.9291 10.0172 12.9164 10.0208 12.9045C10.0244 12.8925 10.0315 12.8819 10.0412 12.874C10.0508 12.8662 10.0626 12.8613 10.0751 12.8601L14.013 12.2886C14.0243 12.2868 14.035 12.2823 14.0443 12.2756C14.0536 12.2688 14.0611 12.26 14.0663 12.2498L15.8246 8.67996C15.8357 8.67132 15.8493 8.66663 15.8633 8.66663C15.8774 8.66663 15.891 8.67132 15.9021 8.67996Z" stroke="#DA1A32" stroke-width="2" stroke-linecap="round"/>
</svg>
