<svg width="31" height="31" viewBox="0 0 31 31" fill="none" xmlns="http://www.w3.org/2000/svg">
<path fill-rule="evenodd" clip-rule="evenodd" d="M19.8107 5.03264C20.8217 3.72754 21.5882 1.88292 21.3109 0C19.6585 0.114834 17.7271 1.17205 16.6001 2.55006C15.5728 3.79866 14.7285 5.65606 15.0582 7.45878C16.8647 7.51528 18.729 6.43253 19.8107 5.03264ZM28.7395 22.7445C28.0166 24.3558 27.6687 25.0758 26.7374 26.503C25.4383 28.4953 23.6066 30.9761 21.3345 30.9943C19.3179 31.0162 18.7979 29.6728 16.0602 29.6892C13.3225 29.7038 12.7517 31.0198 10.7315 30.9998C8.46128 30.9797 6.72552 28.7413 5.42642 26.7491C1.79184 21.1823 1.40954 14.6477 3.6508 11.1717C5.24523 8.7037 7.76008 7.26007 10.1227 7.26007C12.5271 7.26007 14.04 8.58705 16.0312 8.58705C17.9626 8.58705 19.1385 7.25644 21.9197 7.25644C24.0251 7.25644 26.2555 8.41024 27.8427 10.4007C22.639 13.2697 23.4815 20.7449 28.7395 22.7445Z" fill="#0B0B0A"/>
</svg>
