<svg width="40" height="40" viewBox="0 0 40 40" fill="none" xmlns="http://www.w3.org/2000/svg">
<path d="M20.725 13.4062L26.9187 19.6L20.725 25.7937" stroke="black" stroke-width="2"/>
<path d="M26.9188 19.6H4.20001" stroke="black" stroke-width="2"/>
<path d="M13.9375 23.5562V32.1562C13.9367 32.3865 13.9813 32.6148 14.0689 32.8278C14.1565 33.0409 14.2853 33.2345 14.4479 33.3977C14.6104 33.5608 14.8036 33.6903 15.0164 33.7786C15.2291 33.867 15.4572 33.9125 15.6875 33.9124H31.4563C31.6866 33.9125 31.9147 33.867 32.1274 33.7786C32.3401 33.6903 32.5333 33.5608 32.6959 33.3977C32.8585 33.2345 32.9873 33.0409 33.0748 32.8278C33.1624 32.6148 33.2071 32.3865 33.2063 32.1562V7.0437C33.2063 6.81389 33.161 6.58632 33.0731 6.374C32.9851 6.16169 32.8562 5.96877 32.6937 5.80626C32.5312 5.64376 32.3383 5.51486 32.126 5.42691C31.9136 5.33897 31.6861 5.2937 31.4563 5.2937H15.6875C15.4577 5.2937 15.2301 5.33897 15.0178 5.42691C14.8055 5.51486 14.6126 5.64376 14.4501 5.80626C14.2876 5.96877 14.1587 6.16169 14.0707 6.374C13.9828 6.58632 13.9375 6.81389 13.9375 7.0437V15.3187" stroke="black" stroke-width="2"/>
</svg>
