<svg width="31" height="31" viewBox="0 0 31 31" fill="none" xmlns="http://www.w3.org/2000/svg">
<g clip-path="url(#clip0_152_252)">
<path d="M16.0654 30.5317C12.3815 30.5317 9.01319 29.1856 6.40897 26.9587L0 27.8343L2.47599 21.7233C1.61334 19.8198 1.12938 17.7067 1.12938 15.4778C1.12938 7.16421 7.81646 0.423828 16.0654 0.423828C24.3136 0.423828 31 7.16421 31 15.4778C31 23.7929 24.3138 30.5317 16.0654 30.5317ZM24.2206 15.4347V15.3928C24.2206 11.0488 21.1572 7.95125 15.8751 7.95125H10.1702V23.0052H15.7906C21.1137 23.0054 24.2206 19.7785 24.2206 15.4347ZM15.938 19.3066H14.2694V11.651H15.938C18.3888 11.651 20.0155 13.0482 20.0155 15.4579V15.4999C20.0155 17.9299 18.3888 19.3066 15.938 19.3066Z" fill="#2E9FFF"/>
</g>
<defs>
<clipPath id="clip0_152_252">
<rect width="31" height="31" fill="white"/>
</clipPath>
</defs>
</svg>
