<svg width="31" height="31" viewBox="0 0 31 31" fill="none" xmlns="http://www.w3.org/2000/svg">
<g clip-path="url(#clip0_152_157)">
<path fill-rule="evenodd" clip-rule="evenodd" d="M6.66974 15.5C6.66974 14.5156 6.83324 13.5718 7.12506 12.6866L2.01728 8.78607C1.0218 10.8073 0.460938 13.0847 0.460938 15.5C0.460938 17.9132 1.02111 20.1892 2.01521 22.2091L7.12023 18.301C6.83117 17.4199 6.66974 16.4796 6.66974 15.5Z" fill="#FBBC05"/>
<path fill-rule="evenodd" clip-rule="evenodd" d="M15.6381 6.54442C17.7767 6.54442 19.7083 7.3022 21.226 8.5422L25.6412 4.13331C22.9507 1.79109 19.5013 0.344421 15.6381 0.344421C9.64037 0.344421 4.48568 3.7744 2.01733 8.78607L7.12511 12.6866C8.30203 9.11398 11.6569 6.54442 15.6381 6.54442Z" fill="#EB4335"/>
<path fill-rule="evenodd" clip-rule="evenodd" d="M15.6381 24.4555C11.6569 24.4555 8.30203 21.886 7.12511 18.3134L2.01733 22.2132C4.48568 27.2256 9.64037 30.6555 15.6381 30.6555C19.3399 30.6555 22.8741 29.3411 25.5266 26.8784L20.6782 23.1301C19.3102 23.9919 17.5876 24.4555 15.6381 24.4555Z" fill="#34A853"/>
<path fill-rule="evenodd" clip-rule="evenodd" d="M30.1253 15.5C30.1253 14.6044 29.9873 13.64 29.7803 12.7444H15.6381V18.6H23.7785C23.3715 20.5964 22.2635 22.1312 20.6782 23.1301L25.5266 26.8784C28.313 24.2923 30.1253 20.44 30.1253 15.5Z" fill="#4285F4"/>
</g>
<defs>
<clipPath id="clip0_152_157">
<rect width="31" height="31" fill="white"/>
</clipPath>
</defs>
</svg>
