<svg width="31" height="31" viewBox="0 0 31 31" fill="none" xmlns="http://www.w3.org/2000/svg">
<path d="M24.2962 12.3516H6.70374C6.30247 12.3516 5.97717 12.6769 5.97717 13.0781V26.6164C5.97717 27.0177 6.30247 27.343 6.70374 27.343H24.2962C24.6975 27.343 25.0228 27.0177 25.0228 26.6164V13.0781C25.0228 12.6769 24.6975 12.3516 24.2962 12.3516Z" stroke="black" stroke-width="2"/>
<path d="M15.5 3.65698C16.9503 3.65698 18.3413 4.23314 19.3668 5.2587C20.3924 6.28426 20.9686 7.67521 20.9686 9.12558V12.3515H10.0314V9.12558C10.0314 7.67521 10.6075 6.28426 11.6331 5.2587C12.6586 4.23314 14.0496 3.65698 15.5 3.65698Z" stroke="black" stroke-width="2"/>
<path d="M15.5 22.5671C16.5058 22.5671 17.3212 21.7517 17.3212 20.7458C17.3212 19.74 16.5058 18.9246 15.5 18.9246C14.4941 18.9246 13.6787 19.74 13.6787 20.7458C13.6787 21.7517 14.4941 22.5671 15.5 22.5671Z" stroke="black" stroke-width="2"/>
<path d="M15.5 22.5719V25.1052" stroke="black" stroke-width="2"/>
</svg>
